<svg aria-hidden="true" style="position: absolute; width: 0; height: 0; overflow: hidden;" version="1.1" xmlns="http://www.w3.org/2000/svg" xmlns:xlink="http://www.w3.org/1999/xlink">
<defs>
<symbol id="icon-headset_mic" viewBox="0 0 24 24">
<title>headset_mic</title>
<path d="M12 0.984c4.969 0 9 4.031 9 9v10.031c0 1.641-1.359 3-3 3h-6v-2.016h6.984v-0.984h-3.984v-8.016h3.984v-2.016c0-3.891-3.094-6.984-6.984-6.984s-6.984 3.094-6.984 6.984v2.016h3.984v8.016h-3c-1.641 0-3-1.359-3-3v-7.031c0-4.969 4.031-9 9-9z"></path>
</symbol>
<symbol id="icon-user" viewBox="0 0 24 24">
<title>user</title>
<path d="M23.676 19.99c-1.677-4.008-4.914-5.873-7.423-6.739 1.12-1.537 1.733-3.792 1.757-6.55 0.041-4.656-3.798-5.921-5.833-5.938s-5.896 1.18-5.938 5.836c-0.024 2.757 0.55 5.021 1.642 6.579-2.523 0.82-5.795 2.632-7.54 6.608l-0.413 0.938 0.949 0.39c0.207 0.083 5.126 2.070 11.102 2.122 5.977 0.053 10.93-1.847 11.139-1.927l0.955-0.372-0.397-0.947zM12.153 2.763c0.399 0.008 3.89 0.178 3.857 3.921-0.026 2.996-0.841 5.274-2.232 6.251l-1.721 1.208-1.696-1.237c-1.375-1.002-2.149-3.294-2.122-6.29 0.033-3.744 3.527-3.852 3.914-3.853zM11.997 21.237c-4.046-0.035-7.648-1.047-9.341-1.607 1.83-3.205 4.931-4.457 7.312-4.937l2.089-0.421 2.081 0.456c2.373 0.523 5.452 1.829 7.227 5.064-1.699 0.532-5.31 1.481-9.368 1.445z"></path>
</symbol>
<symbol id="icon-bag" viewBox="0 0 24 24">
<title>bag</title>
<path d="M18 7v-3.004l-3-2.996h-6l-3 2.996v3.004h-3v17h18v-17h-3zM9 3h6l1 1h-8l1-1zM16 5v2h-1v-2h1zM14 5v2h-4v-2h4zM8 5h1v2h-1v-2zM19 22h-14v-13h14v13z"></path>
</symbol>
<symbol id="icon-euro_symbol" viewBox="0 0 24 24">
<title>euro_symbol</title>
<path d="M15 18.516c1.641 0 3.094-0.609 4.219-1.594l1.781 1.781c-1.594 1.453-3.703 2.297-6 2.297-3.938 0-7.266-2.531-8.484-6h-3.516v-2.016h3.047c-0.047-0.328-0.047-0.656-0.047-0.984s0-0.656 0.047-0.984h-3.047v-2.016h3.516c1.219-3.469 4.547-6 8.484-6 2.297 0 4.406 0.844 6 2.297l-1.781 1.781c-1.125-0.984-2.625-1.594-4.219-1.594-2.484 0-4.688 1.453-5.766 3.516h5.766v2.016h-6.422c-0.047 0.328-0.094 0.656-0.094 0.984s0.047 0.656 0.094 0.984h6.422v2.016h-5.766c1.078 2.063 3.234 3.516 5.766 3.516z"></path>
</symbol>
<symbol id="icon-magnifier" viewBox="0 0 32 32">
<title>magnifier</title>
<path d="M29.156 29.961l-0.709 0.709c-0.785 0.784-2.055 0.784-2.838 0l-5.676-5.674c-0.656-0.658-0.729-1.644-0.281-2.412l-3.104-3.102c-1.669 1.238-3.728 1.979-5.965 1.979-5.54 0-10.031-4.491-10.031-10.031s4.491-10.032 10.031-10.032c5.541 0 10.031 4.491 10.031 10.032 0 2.579-0.98 4.923-2.58 6.7l3.035 3.035c0.768-0.447 1.754-0.375 2.41 0.283l5.676 5.674c0.784 0.785 0.784 2.056 0.001 2.839zM18.088 11.389c0-4.155-3.369-7.523-7.524-7.523s-7.524 3.367-7.524 7.523 3.368 7.523 7.523 7.523 7.525-3.368 7.525-7.523z"></path>
</symbol>
<symbol id="icon-dollar" viewBox="0 0 16 28">
<title>dollar</title>
<path d="M15.281 18.516c0 3.187-2.281 5.703-5.594 6.25v2.734c0 0.281-0.219 0.5-0.5 0.5h-2.109c-0.266 0-0.5-0.219-0.5-0.5v-2.734c-3.656-0.516-5.656-2.703-5.734-2.797-0.156-0.187-0.172-0.453-0.031-0.641l1.609-2.109c0.078-0.109 0.219-0.172 0.359-0.187s0.281 0.031 0.375 0.141c0.031 0.016 2.219 2.109 4.984 2.109 1.531 0 3.187-0.812 3.187-2.578 0-1.5-1.844-2.234-3.953-3.078-2.812-1.109-6.312-2.516-6.312-6.438 0-2.875 2.25-5.25 5.516-5.875v-2.812c0-0.281 0.234-0.5 0.5-0.5h2.109c0.281 0 0.5 0.219 0.5 0.5v2.75c3.172 0.359 4.859 2.078 4.922 2.141 0.156 0.172 0.187 0.406 0.078 0.594l-1.266 2.281c-0.078 0.141-0.203 0.234-0.359 0.25-0.156 0.031-0.297-0.016-0.422-0.109-0.016-0.016-1.906-1.687-4.25-1.687-1.984 0-3.359 0.984-3.359 2.406 0 1.656 1.906 2.391 4.125 3.25 2.875 1.109 6.125 2.375 6.125 6.141z"></path>
</symbol>
<symbol id="icon-cheveron-down" viewBox="0 0 20 20">
<title>cheveron-down</title>
<path d="M9.293 12.95l0.707 0.707 5.657-5.657-1.414-1.414-4.243 4.242-4.243-4.242-1.414 1.414z"></path>
</symbol>
<symbol id="icon-google-plus" viewBox="0 0 32 32">
<title>google-plus</title>
<path d="M10.181 14.294v3.494h5.775c-0.231 1.5-1.744 4.394-5.775 4.394-3.475 0-6.313-2.881-6.313-6.431s2.838-6.431 6.313-6.431c1.981 0 3.3 0.844 4.056 1.569l2.762-2.662c-1.775-1.656-4.075-2.662-6.819-2.662-5.631 0.006-10.181 4.556-10.181 10.188s4.55 10.181 10.181 10.181c5.875 0 9.775-4.131 9.775-9.95 0-0.669-0.075-1.181-0.163-1.688h-9.613z"></path>
<path d="M32 14h-3v-3h-3v3h-3v3h3v3h3v-3h3z"></path>
</symbol>
<symbol id="icon-facebook" viewBox="0 0 32 32">
<title>facebook</title>
<path d="M19 6h5v-6h-5c-3.86 0-7 3.14-7 7v3h-4v6h4v16h6v-16h5l1-6h-6v-3c0-0.542 0.458-1 1-1z"></path>
</symbol>
<symbol id="icon-twitter" viewBox="0 0 32 32">
<title>twitter</title>
<path d="M32 7.075c-1.175 0.525-2.444 0.875-3.769 1.031 1.356-0.813 2.394-2.1 2.887-3.631-1.269 0.75-2.675 1.3-4.169 1.594-1.2-1.275-2.906-2.069-4.794-2.069-3.625 0-6.563 2.938-6.563 6.563 0 0.512 0.056 1.012 0.169 1.494-5.456-0.275-10.294-2.888-13.531-6.862-0.563 0.969-0.887 2.1-0.887 3.3 0 2.275 1.156 4.287 2.919 5.463-1.075-0.031-2.087-0.331-2.975-0.819 0 0.025 0 0.056 0 0.081 0 3.181 2.263 5.838 5.269 6.437-0.55 0.15-1.131 0.231-1.731 0.231-0.425 0-0.831-0.044-1.237-0.119 0.838 2.606 3.263 4.506 6.131 4.563-2.25 1.762-5.075 2.813-8.156 2.813-0.531 0-1.050-0.031-1.569-0.094 2.913 1.869 6.362 2.95 10.069 2.95 12.075 0 18.681-10.006 18.681-18.681 0-0.287-0.006-0.569-0.019-0.85 1.281-0.919 2.394-2.075 3.275-3.394z"></path>
</symbol>
<symbol id="icon-youtube" viewBox="0 0 32 32">
<title>youtube</title>
<path d="M31.681 9.6c0 0-0.313-2.206-1.275-3.175-1.219-1.275-2.581-1.281-3.206-1.356-4.475-0.325-11.194-0.325-11.194-0.325h-0.012c0 0-6.719 0-11.194 0.325-0.625 0.075-1.987 0.081-3.206 1.356-0.963 0.969-1.269 3.175-1.269 3.175s-0.319 2.588-0.319 5.181v2.425c0 2.587 0.319 5.181 0.319 5.181s0.313 2.206 1.269 3.175c1.219 1.275 2.819 1.231 3.531 1.369 2.563 0.244 10.881 0.319 10.881 0.319s6.725-0.012 11.2-0.331c0.625-0.075 1.988-0.081 3.206-1.356 0.962-0.969 1.275-3.175 1.275-3.175s0.319-2.587 0.319-5.181v-2.425c-0.006-2.588-0.325-5.181-0.325-5.181zM12.694 20.15v-8.994l8.644 4.513-8.644 4.481z"></path>
</symbol>
<symbol id="icon-pinterest" viewBox="0 0 32 32">
<title>pinterest</title>
<path d="M16 2.138c-7.656 0-13.863 6.206-13.863 13.863 0 5.875 3.656 10.887 8.813 12.906-0.119-1.094-0.231-2.781 0.050-3.975 0.25-1.081 1.625-6.887 1.625-6.887s-0.412-0.831-0.412-2.056c0-1.925 1.119-3.369 2.506-3.369 1.181 0 1.756 0.887 1.756 1.95 0 1.188-0.756 2.969-1.15 4.613-0.331 1.381 0.688 2.506 2.050 2.506 2.462 0 4.356-2.6 4.356-6.35 0-3.319-2.387-5.638-5.787-5.638-3.944 0-6.256 2.956-6.256 6.019 0 1.194 0.456 2.469 1.031 3.163 0.113 0.137 0.131 0.256 0.094 0.4-0.106 0.438-0.338 1.381-0.387 1.575-0.063 0.256-0.2 0.306-0.463 0.188-1.731-0.806-2.813-3.337-2.813-5.369 0-4.375 3.175-8.387 9.156-8.387 4.806 0 8.544 3.425 8.544 8.006 0 4.775-3.012 8.625-7.194 8.625-1.406 0-2.725-0.731-3.175-1.594 0 0-0.694 2.644-0.863 3.294-0.313 1.206-1.156 2.712-1.725 3.631 1.3 0.4 2.675 0.619 4.106 0.619 7.656 0 13.863-6.206 13.863-13.863 0-7.662-6.206-13.869-13.863-13.869z"></path>
</symbol>
</defs>
</svg>
